<svg width="128" height="24" viewBox="0 0 128 24" fill="none" xmlns="http://www.w3.org/2000/svg">
<path d="M37.4802 3.49921C37.5225 3.39605 37.5945 3.30779 37.6871 3.24567C37.7797 3.18356 37.8887 3.15039 38.0002 3.15039C38.1117 3.15039 38.2206 3.18356 38.3132 3.24567C38.4058 3.30779 38.4779 3.39605 38.5202 3.49921L40.6452 8.61021C40.6849 8.70585 40.7503 8.78866 40.8341 8.84953C40.9179 8.9104 41.0169 8.94697 41.1202 8.95521L46.6382 9.39721C47.1372 9.43721 47.3392 10.0602 46.9592 10.3852L42.7552 13.9872C42.6766 14.0544 42.6181 14.1419 42.586 14.2402C42.5539 14.3384 42.5494 14.4436 42.5732 14.5442L43.8582 19.9292C43.884 20.0373 43.8772 20.1505 43.8387 20.2547C43.8002 20.3589 43.7317 20.4494 43.6418 20.5146C43.5519 20.5799 43.4447 20.6171 43.3337 20.6214C43.2227 20.6258 43.1129 20.5972 43.0182 20.5392L38.2932 17.6542C38.2049 17.6003 38.1036 17.5718 38.0002 17.5718C37.8968 17.5718 37.7954 17.6003 37.7072 17.6542L32.9822 20.5402C32.8874 20.5982 32.7776 20.6268 32.6666 20.6224C32.5556 20.6181 32.4484 20.5809 32.3585 20.5156C32.2686 20.4504 32.2001 20.3599 32.1616 20.2557C32.1231 20.1515 32.1163 20.0383 32.1422 19.9302L33.4272 14.5442C33.451 14.4436 33.4466 14.3384 33.4145 14.2401C33.3824 14.1418 33.3238 14.0543 33.2452 13.9872L29.0412 10.3852C28.9565 10.313 28.8952 10.2174 28.8649 10.1103C28.8347 10.0033 28.8369 9.88966 28.8713 9.78386C28.9056 9.67807 28.9706 9.58485 29.058 9.51602C29.1454 9.44719 29.2513 9.40584 29.3622 9.39721L34.8802 8.95521C34.9834 8.94697 35.0824 8.9104 35.1662 8.84953C35.25 8.78866 35.3154 8.70585 35.3552 8.61021L37.4802 3.49921Z" fill="#EC8117" stroke="#EC8117" stroke-width="1.5" stroke-linecap="round" stroke-linejoin="round"/>
<path d="M63.4802 3.49921C63.5225 3.39605 63.5945 3.30779 63.6871 3.24567C63.7797 3.18356 63.8887 3.15039 64.0002 3.15039C64.1117 3.15039 64.2206 3.18356 64.3132 3.24567C64.4058 3.30779 64.4779 3.39605 64.5202 3.49921L66.6452 8.61021C66.6849 8.70585 66.7503 8.78866 66.8341 8.84953C66.9179 8.9104 67.0169 8.94697 67.1202 8.95521L72.6382 9.39721C73.1372 9.43721 73.3392 10.0602 72.9592 10.3852L68.7552 13.9872C68.6766 14.0544 68.6181 14.1419 68.586 14.2402C68.5539 14.3384 68.5494 14.4436 68.5732 14.5442L69.8582 19.9292C69.884 20.0373 69.8772 20.1505 69.8387 20.2547C69.8002 20.3589 69.7317 20.4494 69.6418 20.5146C69.5519 20.5799 69.4447 20.6171 69.3337 20.6214C69.2227 20.6258 69.1129 20.5972 69.0182 20.5392L64.2932 17.6542C64.2049 17.6003 64.1036 17.5718 64.0002 17.5718C63.8968 17.5718 63.7954 17.6003 63.7072 17.6542L58.9822 20.5402C58.8874 20.5982 58.7776 20.6268 58.6666 20.6224C58.5556 20.6181 58.4484 20.5809 58.3585 20.5156C58.2686 20.4504 58.2001 20.3599 58.1616 20.2557C58.1231 20.1515 58.1163 20.0383 58.1422 19.9302L59.4272 14.5442C59.451 14.4436 59.4466 14.3384 59.4145 14.2401C59.3824 14.1418 59.3238 14.0543 59.2452 13.9872L55.0412 10.3852C54.9565 10.313 54.8952 10.2174 54.8649 10.1103C54.8347 10.0033 54.8369 9.88966 54.8713 9.78386C54.9056 9.67807 54.9706 9.58485 55.058 9.51602C55.1454 9.44719 55.2513 9.40584 55.3622 9.39721L60.8802 8.95521C60.9834 8.94697 61.0824 8.9104 61.1662 8.84953C61.25 8.78866 61.3154 8.70585 61.3552 8.61021L63.4802 3.49921Z" fill="#EC8117" stroke="#EC8117" stroke-width="1.5" stroke-linecap="round" stroke-linejoin="round"/>
<path d="M115.48 3.49921C115.522 3.39605 115.594 3.30779 115.687 3.24567C115.78 3.18356 115.889 3.15039 116 3.15039C116.112 3.15039 116.221 3.18356 116.313 3.24567C116.406 3.30779 116.478 3.39605 116.52 3.49921L118.645 8.61021C118.685 8.70585 118.75 8.78866 118.834 8.84953C118.918 8.9104 119.017 8.94697 119.12 8.95521L124.638 9.39721C125.137 9.43721 125.339 10.0602 124.959 10.3852L120.755 13.9872C120.677 14.0544 120.618 14.1419 120.586 14.2402C120.554 14.3384 120.549 14.4436 120.573 14.5442L121.858 19.9292C121.884 20.0373 121.877 20.1505 121.839 20.2547C121.8 20.3589 121.732 20.4494 121.642 20.5146C121.552 20.5799 121.445 20.6171 121.334 20.6214C121.223 20.6258 121.113 20.5972 121.018 20.5392L116.293 17.6542C116.205 17.6003 116.104 17.5718 116 17.5718C115.897 17.5718 115.795 17.6003 115.707 17.6542L110.982 20.5402C110.887 20.5982 110.778 20.6268 110.667 20.6224C110.556 20.6181 110.448 20.5809 110.359 20.5156C110.269 20.4504 110.2 20.3599 110.162 20.2557C110.123 20.1515 110.116 20.0383 110.142 19.9302L111.427 14.5442C111.451 14.4436 111.447 14.3384 111.415 14.2401C111.382 14.1418 111.324 14.0543 111.245 13.9872L107.041 10.3852C106.957 10.313 106.895 10.2174 106.865 10.1103C106.835 10.0033 106.837 9.88966 106.871 9.78386C106.906 9.67807 106.971 9.58485 107.058 9.51602C107.145 9.44719 107.251 9.40584 107.362 9.39721L112.88 8.95521C112.983 8.94697 113.082 8.9104 113.166 8.84953C113.25 8.78866 113.315 8.70585 113.355 8.61021L115.48 3.49921Z" fill="#EC8117" stroke="#EC8117" stroke-width="1.5" stroke-linecap="round" stroke-linejoin="round"/>
<path d="M89.4802 3.49921C89.5225 3.39605 89.5945 3.30779 89.6871 3.24567C89.7797 3.18356 89.8887 3.15039 90.0002 3.15039C90.1117 3.15039 90.2206 3.18356 90.3132 3.24567C90.4058 3.30779 90.4779 3.39605 90.5202 3.49921L92.6452 8.61021C92.6849 8.70585 92.7503 8.78866 92.8341 8.84953C92.9179 8.9104 93.0169 8.94697 93.1202 8.95521L98.6382 9.39721C99.1372 9.43721 99.3392 10.0602 98.9592 10.3852L94.7552 13.9872C94.6766 14.0544 94.6181 14.1419 94.586 14.2402C94.5539 14.3384 94.5494 14.4436 94.5732 14.5442L95.8582 19.9292C95.884 20.0373 95.8772 20.1505 95.8387 20.2547C95.8002 20.3589 95.7317 20.4494 95.6418 20.5146C95.5519 20.5799 95.4447 20.6171 95.3337 20.6214C95.2227 20.6258 95.1129 20.5972 95.0182 20.5392L90.2932 17.6542C90.2049 17.6003 90.1036 17.5718 90.0002 17.5718C89.8968 17.5718 89.7954 17.6003 89.7072 17.6542L84.9822 20.5402C84.8874 20.5982 84.7776 20.6268 84.6666 20.6224C84.5556 20.6181 84.4484 20.5809 84.3585 20.5156C84.2686 20.4504 84.2001 20.3599 84.1616 20.2557C84.1231 20.1515 84.1163 20.0383 84.1422 19.9302L85.4272 14.5442C85.451 14.4436 85.4466 14.3384 85.4145 14.2401C85.3824 14.1418 85.3238 14.0543 85.2452 13.9872L81.0412 10.3852C80.9565 10.313 80.8952 10.2174 80.8649 10.1103C80.8347 10.0033 80.8369 9.88966 80.8713 9.78386C80.9056 9.67807 80.9706 9.58485 81.058 9.51602C81.1454 9.44719 81.2513 9.40584 81.3622 9.39721L86.8802 8.95521C86.9834 8.94697 87.0824 8.9104 87.1662 8.84953C87.25 8.78866 87.3154 8.70585 87.3552 8.61021L89.4802 3.49921Z" fill="#EC8117" stroke="#EC8117" stroke-width="1.5" stroke-linecap="round" stroke-linejoin="round"/>
<path d="M11.4802 3.49921C11.5225 3.39605 11.5945 3.30779 11.6871 3.24567C11.7797 3.18356 11.8887 3.15039 12.0002 3.15039C12.1117 3.15039 12.2206 3.18356 12.3132 3.24567C12.4058 3.30779 12.4779 3.39605 12.5202 3.49921L14.6452 8.61021C14.6849 8.70585 14.7503 8.78866 14.8341 8.84953C14.9179 8.9104 15.0169 8.94697 15.1202 8.95521L20.6382 9.39721C21.1372 9.43721 21.3392 10.0602 20.9592 10.3852L16.7552 13.9872C16.6766 14.0544 16.6181 14.1419 16.586 14.2402C16.5539 14.3384 16.5494 14.4436 16.5732 14.5442L17.8582 19.9292C17.884 20.0373 17.8772 20.1505 17.8387 20.2547C17.8002 20.3589 17.7317 20.4494 17.6418 20.5146C17.5519 20.5799 17.4447 20.6171 17.3337 20.6214C17.2227 20.6258 17.1129 20.5972 17.0182 20.5392L12.2932 17.6542C12.2049 17.6003 12.1036 17.5718 12.0002 17.5718C11.8968 17.5718 11.7954 17.6003 11.7072 17.6542L6.98216 20.5402C6.88742 20.5982 6.77762 20.6268 6.66662 20.6224C6.55562 20.6181 6.44841 20.5809 6.35853 20.5156C6.26865 20.4504 6.20013 20.3599 6.16162 20.2557C6.12311 20.1515 6.11634 20.0383 6.14216 19.9302L7.42716 14.5442C7.451 14.4436 7.44661 14.3384 7.4145 14.2401C7.38239 14.1418 7.3238 14.0543 7.24516 13.9872L3.04116 10.3852C2.95651 10.313 2.89517 10.2174 2.86492 10.1103C2.83468 10.0033 2.83688 9.88966 2.87125 9.78386C2.90563 9.67807 2.97062 9.58485 3.05802 9.51602C3.14541 9.44719 3.25126 9.40584 3.36216 9.39721L8.88016 8.95521C8.98341 8.94697 9.08239 8.9104 9.16619 8.84953C9.25 8.78866 9.31539 8.70585 9.35516 8.61021L11.4802 3.49921Z" fill="#EC8117" stroke="#EC8117" stroke-width="1.5" stroke-linecap="round" stroke-linejoin="round"/>
</svg>
